<?xml version="1.0" standalone="no"?>
<!DOCTYPE svg PUBLIC "-//W3C//DTD SVG 20010904//EN" "http://www.w3.org/TR/2001/REC-SVG-20010904/DTD/svg10.dtd">
<svg xmlns="http://www.w3.org/2000/svg" version="1.0" width="360.000000pt" height="140.000000pt" viewBox="0 0 360.000000 140.000000" preserveAspectRatio="xMidYMid meet">
<metadata>
Created by potrace 1.16, written by Peter Selinger 2001-2019
<meta name="Producer" content="Online-Convert"/></metadata>
<g transform="translate(0.000000,140.000000) scale(0.100000,-0.100000)" fill="#000000" stroke="none">
<path d="M426 976 c-97 -76 -126 -115 -126 -174 0 -41 5 -48 81 -125 45 -45 90 -99 100 -120 18 -35 19 -39 3 -60 -13 -18 -15 -18 -10 -3 6 17 5 17 -10 5 -10 -8 -20 -13 -23 -13 -3 1 -5 -3 -3 -10 6 -21 44 -54 88 -78 40 -21 44 -26 44 -62 l0 -39 38 6 c55 7 144 44 191 77 48 35 92 110 65 110 -13 0 -14 3 -4 15 8 10 9 15 2 15 -6 0 -22 10 -35 23 -39 37 -67 57 -78 57 -6 0 -9 7 -5 15 9 24 -3 43 -24 38 -22 -6 -77 24 -83 46 -3 9 -15 41 -26 71 -12 30 -24 73 -26 94 -2 22 -10 43 -17 47 -7 4 -10 11 -6 14 3 3 56 -35 117 -84 l111 -91 0 66 c0 35 -6 79 -14 97 -27 65 -124 125 -183 114 -13 -2 -39 -1 -56 3 -29 6 -40 0 -111 -54z m144 -266 c0 -187 0 -190 -20 -180 -11 6 -26 32 -35 63 -11 40 -24 58 -51 76 -69 47 -71 97 -4 124 27 10 43 24 51 44 11 31 37 63 51 63 4 0 8 -86 8 -190z"/>
<path d="M1110 839 c-43 -18 -60 -40 -60 -80 0 -42 29 -73 80 -84 40 -9 56 -30 39 -51 -10 -13 -25 -15 -66 -11 -53 6 -53 6 -53 -23 0 -27 4 -29 46 -36 89 -13 154 25 154 91 0 42 -16 60 -71 84 -26 11 -50 25 -54 31 -12 20 14 34 59 32 37 -1 45 2 50 20 3 12 4 23 3 24 -9 9 -107 12 -127 3z"/>
<path d="M1925 843 c-37 -9 -65 -44 -65 -82 0 -49 8 -59 66 -80 39 -15 49 -24 49 -42 0 -23 -3 -24 -57 -23 -57 1 -58 1 -58 -26 0 -20 6 -29 23 -34 62 -16 146 5 166 42 14 26 14 67 1 91 -5 10 -34 29 -65 41 -78 32 -73 65 10 62 38 -2 43 1 47 22 4 21 0 25 -31 30 -39 6 -56 6 -86 -1z"/>
<path d="M2153 839 c-88 -26 -83 -133 7 -160 51 -16 67 -33 49 -55 -10 -12 -25 -15 -61 -12 -44 5 -49 3 -54 -19 -4 -13 -3 -27 1 -31 4 -4 37 -7 75 -7 59 0 72 3 95 25 22 20 25 32 23 70 -3 44 -4 46 -60 73 -84 40 -77 85 9 66 28 -6 32 -4 38 18 3 14 4 27 2 29 -10 10 -95 12 -124 3z"/>
<path d="M2415 835 c-66 -24 -93 -78 -82 -171 8 -78 79 -124 168 -109 35 6 39 10 39 37 0 29 -1 30 -34 24 -52 -10 -83 7 -96 52 -17 56 6 109 52 116 18 3 42 5 52 3 13 -1 21 6 26 24 7 24 5 28 -22 33 -43 8 -57 7 -103 -9z"/>
<path d="M2663 843 c-60 -12 -112 -108 -97 -176 17 -80 55 -112 134 -112 60 0 92 18 119 65 37 67 22 176 -29 208 -23 14 -94 23 -127 15z m82 -78 c49 -48 19 -155 -44 -155 -59 0 -84 108 -36 155 13 14 31 25 40 25 9 0 27 -11 40 -25z"/>
<path d="M3010 843 c-8 -3 -25 -14 -36 -25 -21 -19 -21 -19 -27 1 -3 14 -13 21 -31 21 l-25 0 -3 -140 -3 -140 38 0 37 0 0 84 c0 101 10 133 45 142 46 12 55 -8 55 -122 l0 -104 35 0 35 0 0 89 c0 74 3 92 21 115 11 14 28 26 38 26 34 0 41 -21 41 -127 l0 -103 35 0 35 0 0 124 c0 124 0 125 -27 146 -34 27 -94 22 -128 -10 l-22 -21 -14 21 c-14 21 -71 35 -99 23z"/>
<path d="M1286 778 c8 -35 26 -98 40 -141 l26 -78 41 3 40 3 25 88 c14 48 28 84 32 80 4 -4 17 -45 30 -91 l23 -83 41 3 40 3 33 104 c18 56 35 118 39 137 6 33 6 34 -29 34 l-35 0 -23 -95 c-13 -53 -26 -90 -30 -83 -4 7 -17 50 -30 96 l-22 82 -38 0 -37 0 -20 -67 c-12 -38 -24 -81 -28 -96 -9 -39 -18 -22 -40 79 l-19 84 -36 0 -37 0 14 -62z"/>
<path d="M1750 821 c-5 -11 -10 -74 -10 -140 l0 -121 35 0 35 0 0 140 0 140 -25 0 c-14 0 -29 -8 -35 -19z"/>
</g>
</svg>
